# xmcd
#
# Track frame offsets: 
#        150
#        11582
#        23780
#        36131
#        46730
#        58666
#        70262
#        79784
#        91550
#        103987
#        113925
#        126841
#        139825
#        152011
#        161340
#        172616
#        185288
#        197851
#        209270
#        220814
#        231566
#        243798
#        254390
#        263823
#        275054
#        285308
#        297833
#
# Disc length: 4118 seconds
#
# Revision: 1
# Processed by: cddbd v1.5.2PL0 Copyright (c) Steve Scherf et al.
# Submitted via: ExactAudioCopy v1.3
#
DISCID=7b10141b
DTITLE=Lester Flatt - Flatt and Mac Wiseman - Flatt on Victor Plus More_C
DTITLE=D3
DYEAR=1999
DGENRE=Bluegrass
TTITLE0=Lester Flatt, 1971 - I Can't Tell the Boys from the Girls
TTITLE1=Lester Flatt, 1971 - Let Our Love Shine Through
TTITLE2=Lester Flatt, 1971 - Flatt Lonesome
TTITLE3=Lester Flatt, 1971 - Everybody Has One (But You)
TTITLE4=Lester Flatt, 1971 - I'll Be Over You
TTITLE5=Lester Flatt, 1971 - The Good Old Fashioned Way
TTITLE6=Lester Flatt, 1971 - Pick Away
TTITLE7=Lester Flatt, 1971 - She's a Little Bit Country
TTITLE8=Lester Flatt, 1971 - Backin' to Birmingham
TTITLE9=Lester Flatt, 1971 - Head Over Heels in Love
TTITLE10=Lester Flatt, 1971 - Father's Table Grace
TTITLE11=Lester Flatt, 1971 - Little Cabin Home on the Hill
TTITLE12=Lester Flatt, 1971 - Cabin on the Hill
TTITLE13=Lester Flatt, 1971 - Cedar Hill
TTITLE14=Lester Flatt, 1971 - Everything We Had Goin' Is Gone
TTITLE15=Lester Flatt and Mac Wiseman, 1971 - The Bluebirds Are Singing 
TTITLE15=for Me
TTITLE16=Lester Flatt and Mac Wiseman, 1999 - We'll Meet Again Sweethear
TTITLE16=t
TTITLE17=Lester Flatt and Mac Wiseman, 1999 - How Lonely Can You Get?
TTITLE18=Lester Flatt and Mac Wiseman, 1971 - Will You Be Loving Another
TTITLE18=Man?
TTITLE19=Lester Flatt and Mac Wiseman, 1971 - Sweetheart You Done Me Wro
TTITLE19=ng
TTITLE20=Lester Flatt and Mac Wiseman, 1971 - Homestead on the Farm
TTITLE21=Lester Flatt and Mac Wiseman, 1971 - Jimmie Brown, the Newsboy
TTITLE22=Lester Flatt and Mac Wiseman, 1971 - Now That You Have Me
TTITLE23=Lester Flatt and Mac Wiseman, 1971 - I'll Never Love Another
TTITLE24=Lester Flatt and Mac Wiseman, 1971 - You're the Best of All the
TTITLE24=Leading Brands
TTITLE25=Lester Flatt and Mac Wiseman, 1971 - Love Is Like a Flower
TTITLE26=Lester Flatt and Mac Wiseman, 1971 - Special
EXTD=
EXTT0=
EXTT1=
EXTT2=
EXTT3=
EXTT4=
EXTT5=
EXTT6=
EXTT7=
EXTT8=
EXTT9=
EXTT10=
EXTT11=
EXTT12=
EXTT13=
EXTT14=
EXTT15=
EXTT16=
EXTT17=
EXTT18=
EXTT19=
EXTT20=
EXTT21=
EXTT22=
EXTT23=
EXTT24=
EXTT25=
EXTT26=
PLAYORDER=
